<svg width="117" height="30" viewBox="0 0 117 30" fill="none" xmlns="http://www.w3.org/2000/svg">
<g clip-path="url(#clip0_704_1139)">
<g filter="url(#filter0_d_704_1139)">
<path d="M44.0999 9.15625C44.0999 7.4131 42.6874 6 40.945 6C39.2026 6 37.7901 7.4131 37.7901 9.15625V21.4988C37.7901 23.242 39.2026 24.6551 40.945 24.6551C42.6874 24.6551 44.0999 23.242 44.0999 21.4988V9.15625Z" fill="#DFCCFB"/>
<path d="M49.8514 12.3785C50.7225 10.8687 50.2054 8.93808 48.6964 8.0663C47.1875 7.19451 45.258 7.71172 44.3869 9.22152L38.2201 19.9098C37.349 21.4196 37.8661 23.3503 39.3751 24.2221C40.8841 25.0939 42.8135 24.5766 43.6846 23.0668L49.8514 12.3785Z" fill="#BEADFA"/>
<path d="M54.3942 13.7277L54.3942 13.7277C53.523 12.2177 51.5933 11.7005 50.0841 12.5724L39.4042 18.7425C37.895 19.6144 37.3779 21.5453 38.2491 23.0553C39.1203 24.5652 41.05 25.0825 42.5591 24.2106L53.2391 18.0405C54.7482 17.1686 55.2654 15.2377 54.3942 13.7277Z" fill="#865AFF"/>
<path d="M53.2772 24.6553C55.02 24.6553 56.4329 23.2419 56.4329 21.4983C56.4329 19.7548 55.02 18.3413 53.2772 18.3413H40.9458C39.203 18.3413 37.7901 19.7548 37.7901 21.4983C37.7901 23.2419 39.203 24.6553 40.9458 24.6553H53.2772Z" fill="#520066"/>
</g>
<path d="M12.7613 12.1178C12.6856 11.8092 12.5663 11.5385 12.4034 11.3056C12.2405 11.067 12.0368 10.8661 11.7924 10.7031C11.5538 10.5343 11.2745 10.4091 10.9544 10.3276C10.6402 10.2403 10.294 10.1967 9.91575 10.1967C9.10108 10.1967 8.40566 10.3917 7.82956 10.7817C7.25931 11.1718 6.82287 11.7336 6.52029 12.467C6.22351 13.2006 6.07515 14.0855 6.07515 15.1217C6.07515 16.1695 6.21771 17.0661 6.50284 17.8112C6.78797 18.5564 7.21275 19.1269 7.77721 19.5227C8.34166 19.9186 9.04287 20.1165 9.8808 20.1165C10.6198 20.1165 11.2338 20.0088 11.7226 19.7934C12.2172 19.5781 12.5867 19.2724 12.8311 18.8766C13.0755 18.4807 13.1977 18.015 13.1977 17.4794L14.0356 17.5667H9.95065V14.1087H17.8762V16.5887C17.8762 18.2187 17.53 19.613 16.8375 20.7715C16.1509 21.9241 15.2024 22.809 13.992 23.4261C12.7875 24.0373 11.4054 24.343 9.84589 24.343C8.10599 24.343 6.5785 23.9733 5.26338 23.234C3.94825 22.4947 2.92118 21.441 2.18216 20.0729C1.44895 18.7048 1.08235 17.0777 1.08235 15.1915C1.08235 13.7129 1.30638 12.403 1.75445 11.262C2.20835 10.121 2.83681 9.15749 3.63984 8.37159C4.44287 7.57989 5.37104 6.98318 6.42428 6.58148C7.47753 6.17397 8.60643 5.97021 9.81099 5.97021C10.87 5.97021 11.8535 6.12159 12.7613 6.4243C13.6748 6.7212 14.4808 7.14617 15.1791 7.6992C15.8832 8.24643 16.4505 8.89556 16.8812 9.64649C17.3118 10.3975 17.5736 11.2212 17.6668 12.1178H12.7613ZM20.1391 24.0985V6.21474H27.8552C29.182 6.21474 30.3429 6.45631 31.338 6.93951C32.333 7.42271 33.107 8.11836 33.6598 9.02653C34.2126 9.93469 34.489 11.0233 34.489 12.2924C34.489 13.5732 34.2039 14.6531 33.6336 15.5321C33.0692 16.4111 32.2748 17.0748 31.2507 17.5231C30.2324 17.9713 29.0424 18.1955 27.6807 18.1955H23.072V14.4231H26.7031C27.2733 14.4231 27.7592 14.3532 28.1608 14.2135C28.5681 14.068 28.8794 13.838 29.0947 13.5237C29.3158 13.2093 29.4264 12.7989 29.4264 12.2924C29.4264 11.7801 29.3158 11.3639 29.0947 11.0437C28.8794 10.7177 28.5681 10.479 28.1608 10.3276C27.7592 10.1705 27.2733 10.0919 26.7031 10.0919H24.9923V24.0985H20.1391ZM30.6135 15.8901L35.0825 24.0985H29.8105L25.4462 15.8901H30.6135Z" fill="white"/>
<path d="M64.8779 23.8837H58V6H64.8081C66.6472 6 68.2355 6.35798 69.5741 7.07405C70.9182 7.78426 71.954 8.80888 72.6815 10.1478C73.4145 11.481 73.7812 13.079 73.7812 14.9419C73.7812 16.8048 73.4175 18.4057 72.6904 19.7446C71.9628 21.0778 70.9329 22.1023 69.6002 22.8184C68.2675 23.5286 66.6934 23.8837 64.8779 23.8837ZM62.853 19.7621H64.7034C65.5878 19.7621 66.3414 19.6195 66.9643 19.3342C67.5925 19.049 68.0699 18.557 68.3958 17.8585C68.7271 17.1599 68.8933 16.1877 68.8933 14.9419C68.8933 13.696 68.7247 12.7238 68.3869 12.0253C68.0551 11.3267 67.5665 10.8348 66.9205 10.5495C66.2805 10.2643 65.4949 10.1216 64.5638 10.1216H62.853V19.7621ZM80.8799 6V23.8837H76.0269V6H80.8799ZM83.1796 23.8837V6H96.0633V9.91205H88.0331V12.9858H95.3997V16.8979H88.0331V19.9717H96.0284V23.8837H83.1796ZM113.937 6V23.8837H109.887L103.428 14.4878H103.323V23.8837H98.4702V6H102.59L108.945 15.361H109.084V6H113.937Z" fill="white"/>
</g>
<defs>
<filter id="filter0_d_704_1139" x="30.7901" y="6" width="26.6428" height="26.6553" filterUnits="userSpaceOnUse" color-interpolation-filters="sRGB">
<feFlood flood-opacity="0" result="BackgroundImageFix"/>
<feColorMatrix in="SourceAlpha" type="matrix" values="0 0 0 0 0 0 0 0 0 0 0 0 0 0 0 0 0 0 127 0" result="hardAlpha"/>
<feOffset dx="-3" dy="4"/>
<feGaussianBlur stdDeviation="2"/>
<feComposite in2="hardAlpha" operator="out"/>
<feColorMatrix type="matrix" values="0 0 0 0 0 0 0 0 0 0 0 0 0 0 0 0 0 0 0.25 0"/>
<feBlend mode="normal" in2="BackgroundImageFix" result="effect1_dropShadow_704_1139"/>
<feBlend mode="normal" in="SourceGraphic" in2="effect1_dropShadow_704_1139" result="shape"/>
</filter>
<clipPath id="clip0_704_1139">
<rect width="117" height="30" fill="white"/>
</clipPath>
</defs>
</svg>
