<svg width="16" height="23" viewBox="0 0 16 23" fill="none" xmlns="http://www.w3.org/2000/svg">
<path fill-rule="evenodd" clip-rule="evenodd" d="M13.643 2.15325C12.1556 0.799815 10.1473 0.0274084 8.0445 0H7.96486C5.86172 0.0262574 3.85283 0.798524 2.36555 2.15251C0.878264 3.5065 0.0299703 5.33535 0.00112788 7.25C-0.0247542 8.60938 0.395332 9.94519 1.20763 11.0871L7.47509 22.6562H8.53626L14.8017 11.0871C15.616 9.94519 16.0361 8.60938 16.0082 7.25C15.9781 5.33566 15.1297 3.50737 13.643 2.15325ZM7.85536 1.8125L8.01861 1.83062L8.16594 1.8125C9.72995 1.87451 11.2084 2.47962 12.2975 3.50343C13.3866 4.52724 14.0034 5.89197 14.0213 7.31706C14.0365 8.32849 13.7121 9.32004 13.0915 10.1591L13.0517 10.2207L13.0178 10.2841L8.00468 19.5369L2.9935 10.2932L2.95965 10.2225L2.91984 10.1609C2.29922 9.32185 1.97484 8.3303 1.99007 7.31888C2.00705 5.89213 2.62463 4.52568 3.71552 3.5012C4.8064 2.47672 6.28745 1.87229 7.85337 1.8125H7.85536ZM9.07381 5.74381C8.85641 5.61147 8.61251 5.51941 8.35603 5.47288C8.09955 5.42636 7.83551 5.42627 7.579 5.47264C7.32249 5.51901 7.07852 5.61092 6.86102 5.74313C6.64352 5.87533 6.45676 6.04524 6.31139 6.24316C6.16602 6.44107 6.0649 6.66311 6.01379 6.89661C5.96268 7.1301 5.96259 7.37047 6.01352 7.604C6.06446 7.83752 6.16542 8.05963 6.31064 8.25763C6.45586 8.45563 6.64249 8.62566 6.85989 8.758C7.29895 9.02527 7.83664 9.12281 8.3547 9.02917C8.87275 8.93552 9.32873 8.65836 9.62231 8.25866C9.91589 7.85895 10.023 7.36944 9.92017 6.89782C9.81731 6.42619 9.51286 6.01108 9.07381 5.74381ZM5.75492 4.23581C6.18933 3.95782 6.68043 3.76173 7.19931 3.65908C7.7182 3.55644 8.2544 3.54931 8.77636 3.63812C9.29831 3.72693 9.79549 3.90989 10.2386 4.17622C10.6818 4.44256 11.0619 4.78689 11.3567 5.18896C11.6515 5.59103 11.855 6.04271 11.9551 6.51744C12.0553 6.99216 12.0502 7.48033 11.9401 7.95323C11.83 8.42612 11.6171 8.87419 11.3139 9.27106C11.0107 9.66794 10.6234 10.0056 10.1748 10.2642C9.29659 10.7704 8.2358 10.9439 7.21899 10.7476C6.20218 10.5514 5.30996 10.0009 4.73292 9.21388C4.15588 8.42684 3.93976 7.46558 4.13072 6.53543C4.32168 5.60529 4.90458 4.77998 5.75492 4.23581Z" fill="black"/>
</svg>
